<?xml version="1.0" encoding="UTF-8" standalone="no"?>
<svg
   xmlns:dc="http://purl.org/dc/elements/1.1/"
   xmlns:cc="http://creativecommons.org/ns#"
   xmlns:rdf="http://www.w3.org/1999/02/22-rdf-syntax-ns#"
   xmlns:svg="http://www.w3.org/2000/svg"
   xmlns="http://www.w3.org/2000/svg"
   version="1.1"
   viewBox="0 0 60 60"
   data-name="Layer 1"
   id="Layer_1">
  <metadata
     id="metadata4180">
    <rdf:RDF>
      <cc:Work
         rdf:about="">
        <dc:format>image/svg+xml</dc:format>
        <dc:type
           rdf:resource="http://purl.org/dc/dcmitype/StillImage" />
        <dc:title></dc:title>
      </cc:Work>
    </rdf:RDF>
  </metadata>
  <defs
     id="defs4167">
    <style
       id="style4169">.cls-1{fill:#2f3288;}.cls-2{fill:#70be44;}.cls-3{fill:none;}</style>
  </defs>
  <path
     id="path4173"
     d="M27,7.5,9.32,9.32,7.5,27l7.37,7.37L34.38,14.87ZM19.9,19.9a3.75,3.75,0,1,1,0-5.3A3.74,3.74,0,0,1,19.9,19.9Z"
     class="cls-1" />
  <path
     id="path4175"
     d="M51.32,31.82,36.19,16.69,16.69,36.19,31.81,51.33s2.65,2.65,5.29,0L51.32,37.1S54,34.46,51.32,31.82ZM30.51,30.51v5.16a1,1,0,0,1-1,1.06,1,1,0,0,1-1-1.11V29.48a1,1,0,0,1,1-1h6.15s0,0,0,0a1,1,0,0,1,1.06,1,1.05,1.05,0,0,1-1.1,1Zm10.93,9.81a1.15,1.15,0,0,1-1.12,1.13H34.17l0,0a1.13,1.13,0,0,1,0-2.27h5v-5a1.18,1.18,0,0,1,1.16-1.11h0a1.13,1.13,0,0,1,1.1,1.11Z"
     class="cls-2" />
  <rect
     height="60"
     width="60"
     class="cls-3"
     data-name="&lt;Slice&gt;"
     id="_Slice_" />
</svg>
