<?xml version="1.0" encoding="iso-8859-1"?>
<!-- Generator: Adobe Illustrator 19.0.0, SVG Export Plug-In . SVG Version: 6.00 Build 0)  -->
<svg version="1.1" id="Capa_1" xmlns="http://www.w3.org/2000/svg" xmlns:xlink="http://www.w3.org/1999/xlink" x="0px" y="0px"
	 viewBox="0 0 512 512" style="enable-background:new 0 0 512 512;" xml:space="preserve">
<path style="fill:#4B469B;" d="M70,431.884C26.613,386.018,0,324.119,0,256C0,114.615,114.615,0,256,0s256,114.615,256,256
	c0,68.119-26.613,130.018-70,175.884V420H70V431.884z"/>
<path style="fill:#91B9FF;" d="M417,50h60c19.33,0,35,15.67,35,35v75c0,11.046-8.954,20-20,20h-75c-19.33,0-35-15.67-35-35V85
	C382,65.67,397.67,50,417,50z"/>
<path style="fill:#B9DCFF;" d="M487,50c-19.33,0-35,15.67-35,35v6.336V240v180.664C405.04,476.502,334.67,512,256,512
	c-77.557,0-147.054-34.494-194-88.971V240V88.971V85c0-19.33,15.67-35,35-35h7.008h303.984H487z"/>
<path style="fill:#A5CDFA;" d="M95,455.022c-11.93-9.664-22.983-20.369-33-31.993V240V88.971V85c0-19.33,15.67-35,35-35h7.008H130
	c-19.33,0-35,15.67-35,35v3.971V240V455.022z"/>
<path style="fill:#E1FFFA;" d="M375,190H145c-24.853,0-45-20.147-45-45l0,0c0-24.853,20.147-45,45-45h230c24.853,0,45,20.147,45,45
	l0,0C420,169.853,399.853,190,375,190z"/>
<path style="fill:#6E96DC;" d="M418.016,183.874l-22.248-22.248c7.16-13.261,5.153-30.202-6.036-41.392
	c-13.646-13.646-35.851-13.646-49.497,0s-13.646,35.851,0,49.497c11.19,11.189,28.13,13.197,41.392,6.036l22.248,22.248
	c3.905,3.905,10.237,3.905,14.142,0S421.922,187.78,418.016,183.874z M354.377,155.59c-5.849-5.849-5.849-15.364,0-21.213
	s15.365-5.849,21.213,0c5.849,5.848,5.849,15.364,0,21.213S360.225,161.439,354.377,155.59z"/>
<path style="fill:#B9DCFF;" d="M145.614,134.377c5.848,5.848,5.849,15.364,0,21.213s-15.365,5.848-21.213,0
	c-5.849-5.848-5.849-15.365,0-21.213C130.249,128.528,139.765,128.528,145.614,134.377z M174.387,134.377
	c-5.849,5.849-5.849,15.365,0,21.213c5.848,5.848,15.364,5.849,21.213,0s5.849-15.365,0-21.213
	C189.751,128.528,180.235,128.528,174.387,134.377z M245.614,134.377c-5.848-5.849-15.365-5.849-21.213,0
	c-5.849,5.849-5.849,15.365,0,21.213c5.848,5.848,15.364,5.849,21.213,0S251.462,140.225,245.614,134.377z"/>
<path style="fill:#91B9FF;" d="M380,235v10c0,2.761-2.239,5-5,5H173c-2.761,0-5-2.239-5-5v-10c0-2.761,2.239-5,5-5h202
	C377.761,230,380,232.239,380,235z M173,290h162c2.761,0,5-2.239,5-5v-10c0-2.761-2.239-5-5-5H173c-2.761,0-5,2.239-5,5v10
	C168,287.761,170.239,290,173,290z M375,370H173c-2.761,0-5,2.239-5,5v10c0,2.761,2.239,5,5,5h202c2.761,0,5-2.239,5-5v-10
	C380,372.239,377.761,370,375,370z M335,410H173c-2.761,0-5,2.239-5,5v10c0,2.761,2.239,5,5,5h162c2.761,0,5-2.239,5-5v-10
	C340,412.239,337.761,410,335,410z"/>
<path style="fill:#6E96DC;" d="M290,315v10c0,2.761-2.239,5-5,5H173c-2.761,0-5-2.239-5-5v-10c0-2.761,2.239-5,5-5h112
	C287.761,310,290,312.239,290,315z M285,450H173c-2.761,0-5,2.239-5,5v10c0,2.761,2.239,5,5,5h112c2.761,0,5-2.239,5-5v-10
	C290,452.239,287.761,450,285,450z"/>
<path style="fill:#FFEB50;" d="M27.441,265.979c-2.749-2.68-1.232-7.348,2.567-7.901l31.349-4.555
	c1.509-0.219,2.813-1.167,3.487-2.534l14.02-28.407c1.699-3.443,6.608-3.443,8.307,0l14.02,28.407
	c0.675,1.367,1.979,2.315,3.488,2.534l31.349,4.555c3.799,0.552,5.316,5.221,2.567,7.901l-22.685,22.112
	c-1.092,1.064-1.59,2.597-1.332,4.1l5.355,31.223c0.649,3.784-3.323,6.669-6.721,4.883l-28.04-14.741
	c-1.349-0.709-2.961-0.709-4.311,0l-28.04,14.741c-3.398,1.786-7.37-1.099-6.72-4.883l5.355-31.223
	c0.258-1.503-0.24-3.036-1.332-4.1L27.441,265.979z M136.029,398.079l-31.349-4.555c-1.509-0.219-2.813-1.167-3.488-2.534
	l-14.02-28.407c-1.699-3.443-6.608-3.443-8.307,0l-14.02,28.407c-0.675,1.367-1.979,2.315-3.487,2.534l-31.349,4.555
	c-3.799,0.552-5.316,5.221-2.567,7.901l22.685,22.112c1.092,1.064,1.59,2.597,1.332,4.1l-5.355,31.223
	c-0.649,3.784,3.323,6.669,6.72,4.883l28.04-14.741c1.349-0.709,2.961-0.709,4.311,0l28.04,14.741
	c3.398,1.786,7.37-1.099,6.721-4.883l-5.355-31.223c-0.258-1.503,0.24-3.036,1.332-4.1l22.685-22.112
	C141.345,403.299,139.828,398.631,136.029,398.079z"/>
<path style="fill:#FFE13C;" d="M27.441,265.979c-2.749-2.68-1.232-7.348,2.567-7.901l14.963-2.174
	C55.271,281.736,80.495,300,110,300c1.98,0,3.935-0.103,5.874-0.264l4.061,23.678c0.649,3.784-3.323,6.669-6.721,4.883
	l-28.04-14.741c-1.349-0.709-2.961-0.709-4.311,0l-28.04,14.741c-3.398,1.786-7.37-1.099-6.72-4.883l5.355-31.223
	c0.258-1.503-0.24-3.036-1.332-4.1L27.441,265.979z M115.874,439.736C113.935,439.897,111.98,440,110,440
	c-29.505,0-54.729-18.264-65.029-44.096l-14.963,2.174c-3.799,0.552-5.316,5.221-2.567,7.901l22.685,22.112
	c1.092,1.064,1.59,2.597,1.332,4.1l-5.355,31.223c-0.649,3.784,3.323,6.669,6.72,4.883l28.04-14.741
	c1.349-0.709,2.961-0.709,4.311,0l28.04,14.741c3.398,1.786,7.37-1.099,6.721-4.883L115.874,439.736z"/>
<g>
</g>
<g>
</g>
<g>
</g>
<g>
</g>
<g>
</g>
<g>
</g>
<g>
</g>
<g>
</g>
<g>
</g>
<g>
</g>
<g>
</g>
<g>
</g>
<g>
</g>
<g>
</g>
<g>
</g>
</svg>
